<svg width="128" height="128" xmlns="http://www.w3.org/2000/svg"><path d="M490.13 565.21L114.96 368.7c-24.96-15.73-24.96-51.66 0-67.39l375.18-196.52c13.33-8.4 30.41-8.4 43.74 0L909.04 301.3c24.96 15.73 24.96 51.66 0 67.39L533.87 565.21c-13.33 8.41-30.41 8.41-43.74 0z"/><path d="M511.57 765.92c-12.81 0-25.62-3.39-36.91-10.17L112.18 566.36c-15.66-8.18-21.73-27.52-13.54-43.18 8.18-15.66 27.52-21.73 43.18-13.54l364.59 190.49 1.09.68c2.5 1.57 5.75 1.55 8.28-.05l1.08-.68 1.13-.59 364.14-191.21c15.65-8.22 34.99-2.19 43.21 13.45 8.22 15.65 2.19 34.99-13.45 43.21L548.7 755.64c-11.36 6.85-24.25 10.28-37.13 10.28z"/><path d="M511.57 960.31c-12.81 0-25.62-3.39-36.91-10.17L112.18 760.75c-15.66-8.18-21.73-27.52-13.54-43.18 8.18-15.66 27.52-21.73 43.18-13.54l364.59 190.49 1.09.68c2.5 1.57 5.75 1.55 8.28-.05l1.08-.68 1.13-.59 364.14-191.21c15.65-8.22 34.99-2.19 43.21 13.45 8.22 15.65 2.19 34.99-13.45 43.21L548.7 950.04c-11.36 6.85-24.25 10.27-37.13 10.27z"/></svg>